PathFileType	4	(X/Y/Z)	pose_F01_0-95.trc
DataRate	CameraRate	NumFrames	NumMarkers	Units	OrigDataRate	OrigDataStartFrame	OrigNumFrames
30	30	4	21	m	30	0	95
Frame#	Time	CHip			RHip			RKnee			RAnkle			RBigToe			RSmallToe			RHeel			LHip			LKnee			LAnkle			LBigToe			LSmallToe			LHeel			Neck			Nose			RShoulder			RElbow			RWrist			LShoulder			LElbow			LWrist			
		X1	Y1	Z1	X2	Y2	Z2	X3	Y3	Z3	X4	Y4	Z4	X5	Y5	Z5	X6	Y6	Z6	X7	Y7	Z7	X8	Y8	Z8	X9	Y9	Z9	X10	Y10	Z10	X11	Y11	Z11	X12	Y12	Z12	X13	Y13	Z13	X14	Y14	Z14	X15	Y15	Z15	X16	Y16	Z16	X17	Y17	Z17	X18	Y18	Z18	X19	Y19	Z19	X20	Y20	Z20	X21	Y21	Z21	
0	0.0	-0.17828315696971694	1.8503826426804604	-0.559987915651941	-0.16868430145712787	1.8539529151840966	-0.5193271324705402	-0.16307547689890925	1.7206395159895145	-0.49696390078815117	-0.17525730537421033	1.5750324024962856	-0.45925591469693333	-0.2062605375164605	1.550197639456558	-0.4984592528366777	-0.18440996468831408	1.5499937302422153	-0.4960251704446668	-0.16469253495761962	1.567380976563739	-0.4475260994424586	-0.14387767791376754	1.8533153675786778	-0.6393658931169527	-0.13611426367766874	1.701830695755722	-0.5993901198614311	-0.15801593588662072	1.586379720919079	-0.5558628816911602	-0.17152880345530797	1.532729453242039	-0.6068800349127975	-0.1578518303880782	1.5577654094120443	-0.6251699226082872	-0.16572011412738397	1.5722651607492493	-0.5320867390984444	-1.7691604088188124	1.8896120233210987	1.2107374103720696	-0.16519695067796422	2.03268503561111	-0.5753526284564285	-0.1710494869599067	1.976185301792156	-0.5379844590592601	-0.20429323381680434	1.9071533405230598	-0.488796126730677	-0.18260691500378232	1.8403524351852847	-0.43388502252308697	-1.5927262831885356	1.8905695112519745	0.9120181607441576	-0.15039140596868933	1.8856087421802339	-0.7019151358384208	-0.17057597096196198	1.8288750161786116	-0.6126043428925811
1	0.03333333333333333	-0.1784278231465418	1.8479491080510904	-0.5594379722141233	-0.17072496554036867	1.8509520943211413	-0.5165508474793462	-0.1652016719326328	1.7183404762494778	-0.4944417379726988	-0.17525730537421033	1.5750324024962856	-0.45925591469693333	-0.2062605375164605	1.550197639456558	-0.4984592528366777	-0.18440996468831408	1.5499937302422153	-0.4960251704446668	-0.16469253495761962	1.567380976563739	-0.4475260994424586	-0.14603187674108029	1.8506636724600045	-0.636719358031751	-0.1382365764878779	1.701512078590512	-0.5971208755393583	-0.1578041888523624	1.5849435179380067	-0.5561242325463777	-0.1737331545107343	1.5329950404905421	-0.6046600619655379	-0.16024500277440398	1.5563266002738443	-0.6223358181627155	-0.16389270735064518	1.5708831251774384	-0.5337322139707366	-1.7689799665430914	1.8896018566769632	1.210427980379609	-0.16795666699883463	2.0338841317823415	-0.5761295188353583	-0.17216649605691536	1.976041247912629	-0.5326600119077858	-0.20335589750306077	1.9054262855090525	-0.48530052703833826	-0.18555458208702394	1.8382037394900756	-0.4347165556925337	-1.5925534994197343	1.8905895023604027	0.9117616129821038	-0.14942387355738654	1.886690310737926	-0.6989345498424784	-0.16853376901612024	1.8282541836019264	-0.6180562568549087
2	0.06666666666666667	-0.17857248932336664	1.8455155734217203	-0.5588880287763056	-0.17276562962360947	1.847951273458186	-0.5137745624881522	-0.16732786696635635	1.7160414365094412	-0.49191957515724644	-0.17525730537421033	1.5750324024962856	-0.45925591469693333	-0.2062605375164605	1.550197639456558	-0.4984592528366777	-0.18440996468831408	1.5499937302422153	-0.4960251704446668	-0.16469253495761962	1.567380976563739	-0.4475260994424586	-0.14818607556839303	1.8480119773413313	-0.6340728229465492	-0.14035888929808707	1.701193461425302	-0.5948516312172856	-0.15759244181810406	1.5835073149569343	-0.5563855834015952	-0.1759375055661606	1.5332606277390453	-0.6024400890182783	-0.16263817516072976	1.5548877911356442	-0.6195017137171439	-0.1620653005739064	1.5695010896056276	-0.5353776888430287	-1.7687995242673704	1.8895916900328278	1.2101185503871483	-0.17071638331970504	2.035083227953573	-0.5769064092142882	-0.17328350515392402	1.975897194033102	-0.5273355647563114	-0.2024185611893172	1.903699230495045	-0.4818049273459995	-0.18850224917026556	1.8360550437948666	-0.43554808886198043	-1.592380715650933	1.890609493468831	0.9115050652200499	-0.14845634114608375	1.8877718792956182	-0.695953963846536	-0.1664915670702785	1.8276333510252412	-0.6235081708172363
3	0.1	-0.1787171555001915	1.8430820387923503	-0.5583380853384879	-0.17480629370685027	1.8449504525952307	-0.5109982774969583	-0.1694540620000799	1.7137423967694045	-0.48939741234179407	-0.17525730537421033	1.5750324024962856	-0.45925591469693333	-0.2062605375164605	1.550197639456558	-0.4984592528366777	-0.18440996468831408	1.5499937302422153	-0.4960251704446668	-0.16469253495761962	1.567380976563739	-0.4475260994424586	-0.15034027439570577	1.845360282222658	-0.6314262878613475	-0.14248120210829623	1.7008748442600918	-0.5925823868952128	-0.15738069478384573	1.582071111975862	-0.5566469342568127	-0.17814185662158694	1.5335262149875484	-0.6002201160710187	-0.16503134754705553	1.5534489819974442	-0.6166676092715723	-0.1602378937971676	1.5681190540338168	-0.5370231637153209	-1.7678290900427012	1.8896019095357182	1.2088304522233249	-0.17347609964057545	2.0362823241248047	-0.577683299593218	-0.17440051425093267	1.975753140153575	-0.522011117604837	-0.20148122487557363	1.9019721754810377	-0.47830932765366074	-0.19144991625350719	1.8339063480996576	-0.43637962203142716	-1.5909002001344674	1.8904618949119707	0.909891703582533	-0.14748880873478096	1.8888534478533103	-0.6929733778505935	-0.16444936512443678	1.827012518448556	-0.6289600847795639
